<svg xmlns="http://www.w3.org/2000/svg" viewBox="0 0 32 32" width="32" height="32">
  <circle cx="16" cy="16" r="14" fill="#FFD700" stroke="#FFA500" stroke-width="2"/>
  <path d="M8 12c0-2.2 1.8-4 4-4s4 1.8 4 4-1.8 4-4 4-4-1.8-4-4zm8 0c0-2.2 1.8-4 4-4s4 1.8 4 4-1.8 4-4 4-4-1.8-4-4z" fill="#87CEEB"/>
  <path d="M4 20c0-1.1 0.9-2 2-2s2 0.9 2 2-0.9 2-2 2-2-0.9-2-2zm6 0c0-1.1 0.9-2 2-2s2 0.9 2 2-0.9 2-2 2-2-0.9-2-2zm6 0c0-1.1 0.9-2 2-2s2 0.9 2 2-0.9 2-2 2-2-0.9-2-2zm6 0c0-1.1 0.9-2 2-2s2 0.9 2 2-0.9 2-2 2-2-0.9-2-2z" fill="#E6E6FA"/>
</svg> 